<?xml version="1.0" standalone="no"?>
<!DOCTYPE svg PUBLIC "-//W3C//DTD SVG 20010904//EN"
 "http://www.w3.org/TR/2001/REC-SVG-20010904/DTD/svg10.dtd">
<svg version="1.0" xmlns="http://www.w3.org/2000/svg"
 width="1379.000000pt" height="1379.000000pt" viewBox="0 0 1379.000000 1379.000000"
 preserveAspectRatio="xMidYMid meet">
<metadata>
Created by potrace 1.11, written by Peter Selinger 2001-2013
</metadata>
<g transform="translate(0.000000,1379.000000) scale(0.100000,-0.100000)"
fill="#000000" stroke="none">
<path d="M6708 13785 c-2 -2 -28 -6 -59 -9 -31 -4 -67 -9 -80 -12 -13 -3 -35
-8 -49 -11 -71 -14 -224 -71 -318 -120 -59 -30 -109 -58 -112 -61 -3 -4 -25
-20 -48 -35 -61 -40 -95 -69 -192 -169 -100 -103 -122 -130 -178 -220 -74
-120 -161 -328 -178 -428 -2 -14 -7 -36 -10 -49 -30 -133 -25 -382 12 -561 5
-24 51 -172 66 -210 41 -105 152 -287 234 -379 30 -35 107 -110 159 -156 52
-46 205 -144 282 -181 105 -50 224 -90 318 -109 11 -2 31 -6 45 -10 42 -12
372 -14 420 -4 25 5 52 10 60 10 34 2 177 42 246 70 107 42 167 73 264 137 95
63 117 81 204 167 101 99 131 139 243 320 44 70 119 276 138 373 47 258 28
536 -52 742 -4 8 -7 17 -8 20 -54 156 -200 380 -325 498 -57 54 -134 118 -158
132 -15 8 -29 18 -32 21 -12 13 -100 69 -100 64 0 -4 -12 2 -27 12 -52 35
-229 105 -297 117 -14 2 -29 7 -33 9 -5 3 -28 8 -53 11 -25 3 -56 9 -70 12
-25 6 -306 14 -312 9z m252 -589 c52 -8 169 -45 215 -68 376 -190 537 -607
388 -1002 -24 -65 -97 -182 -145 -236 -30 -33 -143 -130 -151 -130 -3 0 -27
-13 -53 -30 -48 -30 -179 -78 -243 -88 -51 -9 -227 -8 -283 1 -41 7 -106 26
-148 44 -8 3 -17 7 -20 8 -21 7 -66 31 -72 40 -4 5 -8 7 -8 2 0 -12 -132 88
-170 130 -70 75 -97 114 -148 209 -16 29 -50 126 -57 159 -3 17 -8 44 -11 60
-3 17 -7 66 -8 110 -4 174 47 336 149 474 128 173 329 296 517 317 29 3 54 7
56 8 4 5 154 -2 192 -8z"/>
<path d="M6589 10736 c-2 -2 -51 -7 -109 -11 -101 -7 -125 -9 -200 -19 -19 -3
-55 -7 -80 -11 -42 -5 -124 -19 -180 -30 -14 -3 -38 -8 -55 -11 -16 -2 -48
-10 -70 -16 -22 -5 -49 -12 -60 -14 -104 -20 -354 -97 -520 -161 -133 -51
-394 -168 -405 -182 -3 -3 -40 -23 -82 -44 -117 -58 -379 -220 -386 -239 -2
-4 -8 -8 -14 -8 -13 0 -261 -186 -318 -240 -9 -8 -50 -44 -90 -80 -94 -83
-239 -226 -242 -239 -3 -9 756 -780 783 -796 4 -3 49 36 101 87 156 155 321
286 525 418 34 22 65 40 69 40 3 0 19 9 34 20 35 25 245 130 259 130 6 0 11 4
11 8 0 5 6 9 13 9 6 0 32 9 57 20 44 20 110 47 120 49 3 0 13 4 23 7 9 4 25
10 35 14 9 3 19 7 22 8 3 0 30 9 60 18 91 29 112 35 175 51 80 20 246 53 315
61 30 4 66 9 80 11 46 6 264 17 350 18 99 0 314 -12 350 -19 14 -3 45 -8 70
-10 25 -3 56 -7 70 -10 14 -3 42 -7 63 -10 21 -3 46 -9 56 -15 10 -5 20 -7 23
-5 9 9 290 -68 383 -105 11 -5 64 -25 119 -45 179 -68 393 -181 581 -309 49
-34 97 -66 105 -73 17 -13 128 -102 148 -118 34 -28 116 -104 199 -186 l92
-91 403 401 403 401 -121 117 c-271 265 -493 438 -791 617 -188 112 -566 298
-610 299 -7 0 -13 4 -13 9 0 4 -5 8 -12 8 -9 0 -124 39 -228 77 -8 4 -20 7
-27 9 -11 2 -49 13 -148 44 -16 5 -42 11 -57 14 -15 2 -31 7 -35 9 -7 4 -233
53 -293 63 -14 2 -34 6 -45 9 -11 2 -49 7 -85 11 -36 3 -68 8 -72 11 -4 2 -40
6 -80 9 -40 2 -84 7 -98 10 -28 6 -565 16 -571 10z"/>
<path d="M11828 10454 c-3 -2 -22 -6 -43 -9 -21 -2 -67 -18 -103 -35 -72 -34
-34 3 -1102 -1079 -272 -276 -628 -636 -790 -801 -162 -164 -452 -458 -643
-652 -2073 -2101 -2013 -2041 -2077 -2070 -146 -67 -296 -59 -429 22 -26 16
-155 141 -288 277 -801 822 -815 836 -888 873 -76 38 -100 44 -205 44 -141 1
-210 -34 -362 -184 -179 -175 -218 -245 -224 -401 -4 -96 5 -139 44 -219 37
-76 -12 -23 605 -654 166 -170 345 -353 397 -406 378 -388 730 -748 755 -773
121 -118 271 -157 440 -114 6 1 26 9 45 17 82 33 92 42 737 697 120 122 448
454 728 738 281 284 613 621 738 748 126 128 463 470 750 760 287 291 631 639
765 775 233 237 1222 1239 1462 1481 179 181 201 212 236 335 12 42 15 80 11
135 -9 129 -52 214 -163 326 -87 88 -138 123 -216 149 -44 14 -172 29 -180 20z"/>
<path d="M3289 8817 c-37 -56 -74 -115 -83 -132 -9 -16 -33 -57 -52 -90 -19
-33 -38 -68 -41 -77 -3 -10 -9 -18 -14 -18 -5 0 -9 -5 -9 -12 0 -6 -20 -50
-44 -97 -49 -97 -145 -320 -182 -426 -37 -105 -105 -326 -111 -360 -3 -16 -9
-38 -14 -47 -5 -10 -8 -18 -5 -18 3 0 -1 -21 -9 -47 -15 -54 -34 -150 -51
-253 -3 -19 -8 -48 -10 -65 -8 -47 -13 -85 -20 -150 -3 -33 -7 -73 -9 -90 -22
-173 -21 -619 0 -790 2 -16 6 -55 10 -85 3 -30 7 -66 10 -80 2 -14 7 -43 10
-65 4 -22 9 -51 11 -65 3 -14 5 -32 5 -40 1 -8 5 -31 10 -50 4 -19 11 -48 13
-65 10 -51 13 -67 40 -175 29 -113 79 -283 100 -340 8 -19 35 -91 62 -160 27
-69 48 -127 48 -130 0 -3 6 -11 13 -18 7 -7 13 -20 13 -27 0 -8 39 -89 86
-182 48 -92 91 -178 98 -190 6 -13 14 -23 19 -23 4 0 7 -5 7 -10 0 -19 200
-326 257 -395 5 -5 22 -28 38 -50 17 -22 35 -45 40 -51 6 -6 21 -26 35 -44 14
-19 32 -41 40 -50 8 -9 47 -51 85 -95 79 -88 229 -239 323 -323 34 -31 62 -59
62 -63 0 -4 -585 -591 -1299 -1306 -1158 -1157 -1302 -1304 -1326 -1356 -15
-32 -28 -66 -30 -75 -2 -9 -4 -17 -5 -17 -13 0 -22 -189 -10 -221 5 -13 12
-36 14 -50 7 -38 42 -107 80 -156 59 -77 176 -152 272 -174 34 -7 168 -9 204
-2 70 13 170 60 211 98 9 8 624 621 1366 1363 l1350 1348 89 -45 c49 -24 105
-51 124 -59 19 -8 55 -24 80 -35 43 -19 264 -102 285 -107 6 -1 17 -5 25 -8
37 -16 314 -92 375 -103 31 -6 33 -7 75 -17 26 -7 61 -14 120 -23 19 -3 60 -9
90 -15 30 -6 78 -12 105 -15 28 -3 61 -7 75 -9 151 -27 714 -28 930 -1 14 2
50 6 80 10 68 9 342 56 350 61 3 2 21 6 40 9 19 3 69 15 110 26 41 12 82 22
90 24 8 3 29 9 45 16 17 6 31 11 33 10 3 -1 158 47 182 57 8 3 17 7 20 8 3 1
14 5 25 10 11 4 61 23 110 42 106 41 198 83 350 160 61 31 120 61 132 67 13 6
23 14 23 19 0 4 5 7 10 7 6 0 40 18 76 40 36 22 70 40 75 40 5 0 9 4 9 8 0 5
10 13 23 19 12 6 60 37 106 69 46 33 90 64 99 69 23 14 242 187 274 216 14 13
57 51 94 84 86 77 193 185 280 282 38 42 76 83 84 92 8 9 43 51 78 94 l63 77
-404 404 -405 405 -61 -80 c-34 -44 -61 -82 -61 -84 0 -2 -10 -15 -22 -28 -13
-12 -46 -50 -75 -84 -101 -117 -248 -258 -373 -357 -47 -37 -93 -74 -103 -83
-36 -28 -223 -150 -297 -193 -63 -37 -243 -130 -260 -135 -3 -1 -16 -6 -30
-12 -79 -34 -207 -85 -220 -88 -8 -2 -28 -9 -45 -15 -35 -14 -22 -10 -190 -55
-71 -19 -143 -36 -160 -39 -16 -2 -30 -5 -30 -6 0 -1 -11 -3 -25 -5 -14 -2
-38 -6 -54 -9 -278 -52 -746 -52 -1006 -1 -14 2 -38 7 -55 10 -172 30 -420
102 -590 172 -73 30 -278 126 -285 133 -3 3 -18 12 -35 20 -42 21 -177 104
-260 160 -208 141 -466 375 -615 559 -19 24 -40 49 -46 55 -6 6 -38 50 -72 96
-34 47 -65 90 -70 95 -4 6 -19 28 -32 50 -13 22 -26 42 -29 45 -4 3 -12 16
-19 29 -8 13 -23 40 -35 60 -61 106 -109 200 -151 297 -71 161 -73 167 -81
194 -3 14 -15 48 -25 75 -18 51 -50 154 -51 167 0 4 -5 22 -10 40 -12 43 -46
200 -55 258 -3 25 -8 54 -10 65 -34 181 -38 602 -9 809 22 159 26 178 35 216
5 19 12 49 14 65 6 31 12 57 22 98 3 12 7 31 9 42 7 31 94 293 104 312 9 18
45 103 47 113 8 31 18 50 27 50 6 0 8 3 4 6 -5 6 86 192 125 254 12 18 9 24
-22 54 -19 19 -193 193 -387 387 -193 195 -362 364 -375 376 l-23 22 -66 -102z"/>
</g>
</svg>
