<svg width="130" height="130" viewBox="0 0 130 130" fill="none" xmlns="http://www.w3.org/2000/svg">
<path d="M43 47.6667C43 41.9203 45.2827 36.4093 49.346 32.346C53.4093 28.2827 58.9203 26 64.6667 26C70.413 26 75.924 28.2827 79.9873 32.346C84.0506 36.4093 86.3333 41.9203 86.3333 47.6667C86.3333 53.413 84.0506 58.924 79.9873 62.9873C75.924 67.0506 70.413 69.3333 64.6667 69.3333C58.9203 69.3333 53.4093 67.0506 49.346 62.9873C45.2827 58.924 43 53.413 43 47.6667Z" fill="white"/>
<path fill-rule="evenodd" clip-rule="evenodd" d="M65 0C47.7609 0 31.2279 6.84819 19.0381 19.0381C6.84819 31.2279 0 47.7609 0 65C0 82.2391 6.84819 98.7721 19.0381 110.962C31.2279 123.152 47.7609 130 65 130C82.2391 130 98.7721 123.152 110.962 110.962C123.152 98.7721 130 82.2391 130 65C130 47.7609 123.152 31.2279 110.962 19.0381C98.7721 6.84819 82.2391 0 65 0V0ZM8.66667 65C8.66681 55.6805 10.9791 46.5066 15.3963 38.3004C19.8134 30.0943 26.1975 23.1121 33.9765 17.9798C41.7554 12.8474 50.6861 9.72511 59.9684 8.8927C69.2506 8.06029 78.5944 9.54377 87.1623 13.2102C95.7303 16.8766 103.255 22.6114 109.062 29.9008C114.868 37.1901 118.776 45.8062 120.434 54.9769C122.093 64.1477 121.45 73.5866 118.563 82.4479C115.677 91.3092 110.637 99.3159 103.896 105.751C103.249 98.1794 99.7838 91.1267 94.186 85.9879C88.5882 80.8491 81.2655 77.9985 73.6667 78H56.3333C48.7345 77.9985 41.4118 80.8491 35.814 85.9879C30.2162 91.1267 26.751 98.1794 26.104 105.751C20.5857 100.496 16.1941 94.1734 13.1964 87.1678C10.1986 80.1622 8.65749 72.62 8.66667 65V65Z" fill="white"/>
</svg>
